<mxfile host="app.diagrams.net" modified="2022-03-03T22:13:04.645Z" agent="5.0 (Windows)" etag="e_aPQ-sAxwPEocZXfiEO" version="16.6.5" type="github">
  <diagram id="YoGDx5lPgGkDC6zVhu_r" name="Page-1">
    <mxGraphModel dx="1038" dy="564" grid="1" gridSize="10" guides="1" tooltips="1" connect="1" arrows="1" fold="1" page="1" pageScale="1" pageWidth="827" pageHeight="1169" math="0" shadow="0">
      <root>
        <mxCell id="0" />
        <mxCell id="1" parent="0" />
        <mxCell id="belqkL5oKVZGwkpgXXdb-6" style="edgeStyle=orthogonalEdgeStyle;rounded=0;orthogonalLoop=1;jettySize=auto;html=1;entryX=0.5;entryY=0;entryDx=0;entryDy=0;" edge="1" parent="1" source="belqkL5oKVZGwkpgXXdb-1" target="belqkL5oKVZGwkpgXXdb-3">
          <mxGeometry relative="1" as="geometry" />
        </mxCell>
        <mxCell id="belqkL5oKVZGwkpgXXdb-1" value="Elipse indica inicio/fin" style="ellipse;whiteSpace=wrap;html=1;" vertex="1" parent="1">
          <mxGeometry x="270" y="60" width="190" height="60" as="geometry" />
        </mxCell>
        <mxCell id="belqkL5oKVZGwkpgXXdb-7" style="edgeStyle=orthogonalEdgeStyle;rounded=0;orthogonalLoop=1;jettySize=auto;html=1;exitX=0.5;exitY=1;exitDx=0;exitDy=0;entryX=0.5;entryY=0;entryDx=0;entryDy=0;" edge="1" parent="1" source="belqkL5oKVZGwkpgXXdb-3" target="belqkL5oKVZGwkpgXXdb-4">
          <mxGeometry relative="1" as="geometry" />
        </mxCell>
        <mxCell id="belqkL5oKVZGwkpgXXdb-3" value="&lt;div&gt;Declarar variables o desarrollar procesos en el flujo del codigo&lt;/div&gt;" style="rounded=0;whiteSpace=wrap;html=1;" vertex="1" parent="1">
          <mxGeometry x="255" y="170" width="220" height="60" as="geometry" />
        </mxCell>
        <mxCell id="belqkL5oKVZGwkpgXXdb-8" style="edgeStyle=orthogonalEdgeStyle;rounded=0;orthogonalLoop=1;jettySize=auto;html=1;exitX=1;exitY=0.5;exitDx=0;exitDy=0;entryX=0.5;entryY=0;entryDx=0;entryDy=0;" edge="1" parent="1" source="belqkL5oKVZGwkpgXXdb-4" target="belqkL5oKVZGwkpgXXdb-5">
          <mxGeometry relative="1" as="geometry" />
        </mxCell>
        <mxCell id="belqkL5oKVZGwkpgXXdb-12" style="edgeStyle=orthogonalEdgeStyle;rounded=0;orthogonalLoop=1;jettySize=auto;html=1;" edge="1" parent="1" source="belqkL5oKVZGwkpgXXdb-4" target="belqkL5oKVZGwkpgXXdb-9">
          <mxGeometry relative="1" as="geometry" />
        </mxCell>
        <mxCell id="belqkL5oKVZGwkpgXXdb-4" value="El rombo indica condicionales estructura lógica" style="rhombus;whiteSpace=wrap;html=1;" vertex="1" parent="1">
          <mxGeometry x="280" y="290" width="170" height="150" as="geometry" />
        </mxCell>
        <mxCell id="belqkL5oKVZGwkpgXXdb-17" style="edgeStyle=orthogonalEdgeStyle;rounded=0;orthogonalLoop=1;jettySize=auto;html=1;entryX=1;entryY=0.5;entryDx=0;entryDy=0;" edge="1" parent="1" source="belqkL5oKVZGwkpgXXdb-5" target="belqkL5oKVZGwkpgXXdb-9">
          <mxGeometry relative="1" as="geometry">
            <Array as="points">
              <mxPoint x="610" y="655" />
            </Array>
          </mxGeometry>
        </mxCell>
        <mxCell id="belqkL5oKVZGwkpgXXdb-5" value="Muestra un texto en pantalla" style="shape=document;whiteSpace=wrap;html=1;boundedLbl=1;" vertex="1" parent="1">
          <mxGeometry x="550" y="440" width="120" height="80" as="geometry" />
        </mxCell>
        <mxCell id="belqkL5oKVZGwkpgXXdb-19" style="edgeStyle=orthogonalEdgeStyle;rounded=0;orthogonalLoop=1;jettySize=auto;html=1;entryX=0.5;entryY=0;entryDx=0;entryDy=0;" edge="1" parent="1" source="belqkL5oKVZGwkpgXXdb-9" target="belqkL5oKVZGwkpgXXdb-18">
          <mxGeometry relative="1" as="geometry" />
        </mxCell>
        <mxCell id="belqkL5oKVZGwkpgXXdb-9" value="Entrada o salida de informacion" style="shape=parallelogram;perimeter=parallelogramPerimeter;whiteSpace=wrap;html=1;fixedSize=1;" vertex="1" parent="1">
          <mxGeometry x="297.5" y="610" width="135" height="90" as="geometry" />
        </mxCell>
        <mxCell id="belqkL5oKVZGwkpgXXdb-13" value="Una condicion puede tener falso o verdadero" style="text;html=1;align=center;verticalAlign=middle;resizable=0;points=[];autosize=1;strokeColor=none;fillColor=none;" vertex="1" parent="1">
          <mxGeometry x="370" y="560" width="250" height="20" as="geometry" />
        </mxCell>
        <mxCell id="belqkL5oKVZGwkpgXXdb-15" value="True" style="text;html=1;align=center;verticalAlign=middle;resizable=0;points=[];autosize=1;strokeColor=none;fillColor=none;" vertex="1" parent="1">
          <mxGeometry x="520" y="340" width="40" height="20" as="geometry" />
        </mxCell>
        <mxCell id="belqkL5oKVZGwkpgXXdb-16" value="False" style="text;html=1;align=center;verticalAlign=middle;resizable=0;points=[];autosize=1;strokeColor=none;fillColor=none;" vertex="1" parent="1">
          <mxGeometry x="250" y="500" width="40" height="20" as="geometry" />
        </mxCell>
        <mxCell id="belqkL5oKVZGwkpgXXdb-21" style="edgeStyle=orthogonalEdgeStyle;rounded=0;orthogonalLoop=1;jettySize=auto;html=1;entryX=0.5;entryY=0;entryDx=0;entryDy=0;" edge="1" parent="1" source="belqkL5oKVZGwkpgXXdb-18" target="belqkL5oKVZGwkpgXXdb-20">
          <mxGeometry relative="1" as="geometry" />
        </mxCell>
        <mxCell id="belqkL5oKVZGwkpgXXdb-25" style="edgeStyle=orthogonalEdgeStyle;rounded=0;orthogonalLoop=1;jettySize=auto;html=1;entryX=0.5;entryY=0;entryDx=0;entryDy=0;" edge="1" parent="1" source="belqkL5oKVZGwkpgXXdb-18" target="belqkL5oKVZGwkpgXXdb-24">
          <mxGeometry relative="1" as="geometry">
            <Array as="points">
              <mxPoint x="490" y="840" />
              <mxPoint x="490" y="1190" />
            </Array>
          </mxGeometry>
        </mxCell>
        <mxCell id="belqkL5oKVZGwkpgXXdb-18" value="Un ciclo es la estructura de repetición termina hasta cumplir una condición" style="rhombus;whiteSpace=wrap;html=1;" vertex="1" parent="1">
          <mxGeometry x="277.5" y="770" width="175" height="140" as="geometry" />
        </mxCell>
        <mxCell id="belqkL5oKVZGwkpgXXdb-22" style="edgeStyle=orthogonalEdgeStyle;rounded=0;orthogonalLoop=1;jettySize=auto;html=1;entryX=0;entryY=0.5;entryDx=0;entryDy=0;" edge="1" parent="1" source="belqkL5oKVZGwkpgXXdb-20" target="belqkL5oKVZGwkpgXXdb-18">
          <mxGeometry relative="1" as="geometry">
            <mxPoint x="210" y="970" as="targetPoint" />
            <Array as="points">
              <mxPoint x="70" y="1050" />
              <mxPoint x="70" y="840" />
            </Array>
          </mxGeometry>
        </mxCell>
        <mxCell id="belqkL5oKVZGwkpgXXdb-20" value="Entrada o salida de datos" style="shape=document;whiteSpace=wrap;html=1;boundedLbl=1;" vertex="1" parent="1">
          <mxGeometry x="305" y="1010" width="120" height="80" as="geometry" />
        </mxCell>
        <mxCell id="belqkL5oKVZGwkpgXXdb-23" value="True" style="text;html=1;align=center;verticalAlign=middle;resizable=0;points=[];autosize=1;strokeColor=none;fillColor=none;" vertex="1" parent="1">
          <mxGeometry x="140" y="990" width="40" height="20" as="geometry" />
        </mxCell>
        <mxCell id="belqkL5oKVZGwkpgXXdb-24" value="Elipse inicia o finaliza el algoritmo" style="ellipse;whiteSpace=wrap;html=1;" vertex="1" parent="1">
          <mxGeometry x="312.5" y="1220" width="120" height="80" as="geometry" />
        </mxCell>
        <mxCell id="belqkL5oKVZGwkpgXXdb-26" value="False" style="text;html=1;align=center;verticalAlign=middle;resizable=0;points=[];autosize=1;strokeColor=none;fillColor=none;" vertex="1" parent="1">
          <mxGeometry x="520" y="910" width="40" height="20" as="geometry" />
        </mxCell>
        <mxCell id="belqkL5oKVZGwkpgXXdb-27" value="las flechas indican el flujo del algoritmo" style="text;html=1;align=center;verticalAlign=middle;resizable=0;points=[];autosize=1;strokeColor=none;fillColor=none;" vertex="1" parent="1">
          <mxGeometry x="370" y="130" width="220" height="20" as="geometry" />
        </mxCell>
      </root>
    </mxGraphModel>
  </diagram>
</mxfile>
